<svg xmlns="http://www.w3.org/2000/svg" width="38" height="39" fill="none"><path fill-rule="evenodd" clip-rule="evenodd" d="M20.13.107 8.32 27.184H5.195a.686.686 0 0 0 0 1.373h2.525l.6-1.373h6.287a.686.686 0 0 1 0 1.373H7.72l-.427.98H.686a.686.686 0 1 0 0 1.373h6.008l.6-1.373h1.431a.686.686 0 0 1 0 1.373H6.694l-.428.98h.106a.686.686 0 0 1 0 1.373h-.704L3.64 37.91a.179.179 0 0 0 .166.25l8.137-.093c.07 0 .134-.043.162-.108l2.03-4.697h12.308l2.137 4.794a.179.179 0 0 0 .165.106l8.141-.093a.179.179 0 0 0 .162-.25L20.458.106a.179.179 0 0 0-.327 0zm6.313 33.156-.61-1.373H14.73l-.596 1.373H8.921a.686.686 0 0 1 0-1.373h5.808l.424-.98h-4.467a.686.686 0 0 1 0-1.373h5.06l4.288-9.92a.179.179 0 0 1 .328-.002l3.373 7.57h5.383a.686.686 0 0 1 0 1.372h-4.772l.437.98h-6.45a.686.686 0 1 0 0 1.373h7.06l-.609-1.373h2.177a.686.686 0 0 1 0 1.373h-1.566l.436.98h2.698a.686.686 0 0 1 0 1.373h-2.086zm3.165-.686c0-.38.307-.687.686-.687h.588a.686.686 0 0 1 0 1.373h-.588a.686.686 0 0 1-.686-.686zM3.039 31.89a.686.686 0 0 0 0 1.373h2.626l.603-1.373H3.04zm19.118-4.02c0-.378.307-.686.686-.686h.89l.611 1.373h-1.5a.686.686 0 0 1-.687-.686zm-19.314-.686a.686.686 0 0 0 0 1.373h.589a.686.686 0 0 0 0-1.373h-.589zm14.216.687c0-.38.307-.687.686-.687h2.55a.686.686 0 0 1 0 1.373h-2.55a.686.686 0 0 1-.686-.686zm-.882 1.666h-.428l-.596 1.373h1.024a.686.686 0 1 0 0-1.373z" fill="url(#a)"/><defs><linearGradient id="a" x1="18.532" y1="5.636" x2="18.532" y2="38.163" gradientUnits="userSpaceOnUse"><stop stop-color="#25C588"/><stop offset="1" stop-color="#009356"/></linearGradient></defs></svg>